<svg xmlns="http://www.w3.org/2000/svg" viewBox="0 0 32 32">
  <defs>
    <linearGradient id="bg" x1="0%" y1="0%" x2="100%" y2="100%">
      <stop offset="0%" stop-color="#2C1810"/>
      <stop offset="100%" stop-color="#1A1A2E"/>
    </linearGradient>
    <linearGradient id="g" x1="0%" y1="0%" x2="100%" y2="100%">
      <stop offset="0%" stop-color="#E8C9A0"/>
      <stop offset="100%" stop-color="#C4956A"/>
    </linearGradient>
  </defs>
  <rect width="32" height="32" rx="7" fill="url(#bg)"/>
  <!-- Simplified open book -->
  <path d="M16,22 C16,22 12,21 8,19.5 C7,19.2 6.5,18.5 6.5,17.5 L6.5,11 C6.5,10 7.2,9.5 8,9.8 C12,11 16,11.5 16,11.5 Z" fill="none" stroke="url(#g)" stroke-width="1.2" stroke-linejoin="round" opacity="0.85"/>
  <path d="M16,22 C16,22 20,21 24,19.5 C25,19.2 25.5,18.5 25.5,17.5 L25.5,11 C25.5,10 24.8,9.5 24,9.8 C20,11 16,11.5 16,11.5 Z" fill="none" stroke="url(#g)" stroke-width="1.2" stroke-linejoin="round" opacity="0.85"/>
  <!-- Cross -->
  <line x1="16" y1="6" x2="16" y2="11.5" stroke="url(#g)" stroke-width="1.8" stroke-linecap="round"/>
  <line x1="13.5" y1="8.5" x2="18.5" y2="8.5" stroke="url(#g)" stroke-width="1.8" stroke-linecap="round"/>
</svg>
